# Blender v2.83.5 OBJ File: 'big_foot_0_1.blend'
# www.blender.org
mtllib laergun.mtl
o Cube.003
v -0.131782 0.195196 -0.312701
v 0.134686 0.195196 -0.311461
v 0.133245 0.194313 0.312925
v 0.316545 0.194633 0.130469
v 0.317142 0.194998 -0.128160
v -0.136151 0.194313 0.311671
v -0.317746 0.194633 0.127517
v -0.315936 0.194998 -0.131106
v -0.113867 0.323966 -0.268501
v 0.116361 0.323966 -0.267429
v 0.115122 0.323208 0.269173
v 0.272652 0.323483 0.112369
v 0.273165 0.323797 -0.109899
v -0.117622 0.323208 0.268090
v -0.273686 0.323483 0.109827
v -0.272131 0.323797 -0.112436
v -0.034999 0.349557 -0.075273
v 0.035698 0.349557 -0.074944
v 0.035360 0.349350 0.071683
v 0.078405 0.349425 0.028836
v 0.078545 0.349511 -0.031899
v -0.036025 0.349350 0.071350
v -0.078670 0.349425 0.028105
v -0.078245 0.349511 -0.032629
v -0.061024 0.664581 -0.125017
v 0.062185 0.664581 -0.124443
v 0.065829 0.614301 0.072127
v 0.078315 0.614366 0.029210
v 0.078455 0.614451 -0.031525
v -0.066497 0.614301 0.071512
v -0.078584 0.614366 0.028480
v -0.078159 0.614451 -0.032254
v -0.060374 0.749050 -0.124893
v 0.061534 0.749050 -0.124325
v 0.064505 0.798778 0.072385
v 0.078253 0.798843 0.029471
v 0.078393 0.798929 -0.031264
v -0.065176 0.798778 0.071781
v -0.078524 0.798843 0.028741
v -0.078099 0.798929 -0.031992
v 0.064604 0.571908 0.602579
v -0.070209 0.571908 0.601951
v 0.063280 0.839691 0.602836
v -0.068888 0.839691 0.602221
v -0.055792 0.665646 -0.879211
v 0.063972 0.665646 -0.878654
v -0.055141 0.750116 -0.879099
v 0.063320 0.750116 -0.878548
v -0.040512 0.686559 -1.254793
v 0.052187 0.686559 -1.254361
v -0.040175 0.730257 -1.254728
v 0.051850 0.730257 -1.254300
v -0.015371 0.677112 -1.304609
v 0.027511 0.677112 -1.304409
v -0.014888 0.739827 -1.304517
v 0.027027 0.739827 -1.304322
v -0.021997 0.639775 -1.671119
v 0.037548 0.639775 -1.670842
v -0.018211 0.778203 -1.670897
v 0.033759 0.778203 -1.670655
v -0.012807 0.677629 -1.671001
v 0.028357 0.677629 -1.670810
v -0.012324 0.740345 -1.670909
v 0.027873 0.740345 -1.670722
v -0.003679 0.647048 -1.721606
v 0.019700 0.647048 -1.721497
v -0.015465 0.778274 -1.721503
v 0.031485 0.778274 -1.721284
v -0.008444 0.670491 -1.721606
v 0.024465 0.670491 -1.721453
v -0.011970 0.740416 -1.721532
v 0.027990 0.740416 -1.721346
v -0.012786 0.742799 -1.670909
v 0.028335 0.742799 -1.670718
v -0.012431 0.742871 -1.721532
v 0.028451 0.742871 -1.721341
v -0.017888 0.639845 -1.721715
v 0.033909 0.639845 -1.721474
v -0.012453 0.677700 -1.721624
v 0.028473 0.677700 -1.721433
v 0.001135 0.648019 -2.409468
v 0.021287 0.648019 -2.409374
v -0.003630 0.671461 -2.409468
v 0.026052 0.671461 -2.409330
v 0.025994 0.671426 -2.384209
v -0.003806 0.671426 -2.384348
v -0.000565 0.700805 -2.406958
v 0.022964 0.700805 -2.406848
v -0.000706 0.700777 -2.386837
v 0.022917 0.700777 -2.386727
v -0.060339 0.798984 -0.074815
v -0.061759 0.614507 -0.075086
v -0.054702 0.800121 -0.880374
v -0.056122 0.615644 -0.880644
v -0.037799 0.777692 -1.304624
v -0.038865 0.639262 -1.304827
v -0.121865 0.742390 -0.856162
v -0.122389 0.674343 -0.856252
v -0.126080 0.741532 -0.248587
v -0.126604 0.673485 -0.248687
v -0.109808 0.726392 -1.158762
v -0.110079 0.691190 -1.158814
v -0.046944 0.954765 -0.074502
v 0.061032 0.798984 -0.074251
v 0.062455 0.614507 -0.074508
v 0.062892 0.800121 -0.879827
v 0.064315 0.615644 -0.880084
v -0.033511 0.954553 0.072223
v -0.078473 0.954629 0.028961
v -0.078048 0.954715 -0.031772
v 0.049938 0.777692 -1.304215
v -0.062075 0.590492 0.652234
v 0.051006 0.639262 -1.304408
v -0.060938 0.821001 0.652466
v -0.066744 0.633311 0.126423
v -0.065697 0.779614 0.126637
v -0.069688 0.599691 0.547096
v -0.068640 0.812061 0.547310
v -0.258086 0.681107 0.259918
v -0.257710 0.733675 0.259995
v -0.259144 0.669027 0.411071
v -0.258767 0.745334 0.411148
v 0.004725 0.651960 -2.409438
v 0.129827 0.742390 -0.854991
v 0.001563 0.667517 -2.409437
v 0.130352 0.674343 -0.855076
v 0.003857 0.651785 -2.285346
v 0.128388 0.741532 -0.247403
v 0.000695 0.667341 -2.285346
v 0.128913 0.673485 -0.247498
v 0.001451 0.195151 -0.311769
v -0.001455 0.194268 0.312614
v 0.001246 0.323928 -0.267695
v -0.001251 0.323169 0.268905
v 0.000349 0.349545 -0.075026
v -0.000333 0.349338 0.071600
v 0.000347 0.614486 -0.074651
v -0.000335 0.614278 0.071975
v 0.000346 0.798963 -0.074391
v -0.000336 0.798756 0.072235
v -0.002803 0.571875 0.602423
v -0.002804 0.839659 0.602683
v 0.004096 0.615624 -0.880223
v 0.004095 0.800101 -0.879962
v 0.006070 0.639247 -1.304512
v 0.006069 0.777677 -1.304317
v 0.006070 0.677104 -1.304459
v 0.006069 0.739820 -1.304370
v 0.007775 0.639765 -1.670911
v 0.007774 0.778195 -1.670715
v 0.007775 0.677622 -1.670857
v 0.007774 0.740338 -1.670769
v 0.008010 0.639836 -1.721534
v 0.008010 0.778266 -1.721339
v 0.008010 0.677693 -1.721480
v 0.008010 0.740409 -1.721392
v 0.007774 0.742792 -1.670765
v 0.008010 0.742864 -1.721389
v 0.008010 0.647044 -1.721524
v 0.008010 0.670485 -1.721491
v 0.011211 0.648015 -2.409398
v 0.011211 0.671456 -2.409365
v 0.011096 0.671421 -2.384748
v 0.011199 0.700802 -2.406875
v 0.011108 0.700774 -2.387153
v 0.000345 0.954749 -0.074171
v -0.000337 0.954542 0.072455
v -0.003037 0.590464 0.652647
v -0.003038 0.820973 0.652872
v 0.011211 0.651958 -2.409392
v 0.011211 0.667513 -2.409370
v 0.010634 0.651783 -2.285299
v 0.010634 0.667338 -2.285276
v 0.120587 0.726392 -1.157690
v 0.120858 0.691190 -1.157739
v 0.047636 0.954765 -0.074062
v 0.032837 0.954553 0.072531
v 0.078200 0.954629 0.029690
v 0.078340 0.954715 -0.031045
v 0.056003 0.590492 0.652784
v 0.054864 0.821001 0.653005
v 0.065565 0.633311 0.127038
v 0.064515 0.779614 0.127242
v 0.064594 0.599691 0.547721
v 0.063544 0.812061 0.547925
v 0.255656 0.681107 0.262308
v 0.255279 0.733675 0.262382
v 0.255307 0.669027 0.413465
v 0.254930 0.745334 0.413538
v 0.017698 0.651960 -2.409377
v 0.020860 0.667517 -2.409348
v 0.017411 0.651785 -2.285283
v 0.020573 0.667341 -2.285254
v 0.133245 -0.000457 0.312925
v 0.316545 -0.000137 0.130469
v 0.317142 0.000229 -0.128160
v -0.001455 -0.000502 0.312614
v -0.136151 -0.000457 0.311671
v -0.317746 -0.000137 0.127517
v -0.315936 0.000229 -0.131106
v -0.131782 0.000426 -0.312701
v 0.001451 0.000381 -0.311769
v 0.134686 0.000426 -0.311461
vt 0.803364 0.940284
vt 0.803364 0.940284
vt 0.803364 0.940284
vt 0.803364 0.940284
vt 0.803364 0.940284
vt 0.803364 0.940284
vt 0.803364 0.940284
vt 0.803364 0.940284
vt 0.803364 0.940284
vt 0.803364 0.940284
vt 0.803364 0.940284
vt 0.803364 0.940284
vt 0.803364 0.940284
vt 0.803364 0.940284
vt 0.803364 0.940284
vt 0.803364 0.940284
vt 0.803364 0.940284
vt 0.803364 0.940284
vt 0.803364 0.940284
vt 0.803364 0.940284
vt 0.803364 0.940284
vt 0.803364 0.940284
vt 0.803364 0.940284
vt 0.803364 0.940284
vt 0.803364 0.940284
vt 0.803364 0.940284
vt 0.803364 0.940284
vt 0.803364 0.940284
vt 0.803364 0.940284
vt 0.803364 0.940284
vt 0.803364 0.940284
vt 0.803364 0.940284
vt 0.803364 0.940284
vt 0.803364 0.940284
vt 0.803364 0.940284
vt 0.803364 0.940284
vt 0.803364 0.940284
vt 0.803364 0.940284
vt 0.803364 0.940284
vt 0.803364 0.940284
vt 0.803364 0.940284
vt 0.803364 0.940284
vt 0.803364 0.940284
vt 0.803364 0.940284
vt 0.803364 0.940284
vt 0.803364 0.940284
vt 0.803364 0.940284
vt 0.803364 0.940284
vt 0.803364 0.940284
vt 0.803364 0.940284
vt 0.803364 0.940284
vt 0.803364 0.940284
vt 0.803364 0.940284
vt 0.803364 0.940284
vt 0.803364 0.940284
vt 0.803364 0.940284
vt 0.803364 0.940284
vt 0.803364 0.940284
vt 0.803364 0.940284
vt 0.803364 0.940284
vt 0.803364 0.940284
vt 0.803364 0.940284
vt 0.803364 0.940284
vt 0.803364 0.940284
vt 0.803364 0.940284
vt 0.803364 0.940284
vt 0.803364 0.940284
vt 0.803364 0.940284
vt 0.803364 0.940284
vt 0.803364 0.940284
vt 0.803364 0.940284
vt 0.803364 0.940284
vt 0.803364 0.940284
vt 0.803364 0.940284
vt 0.803364 0.940284
vt 0.803364 0.940284
vt 0.803364 0.940284
vt 0.803364 0.940284
vt 0.803364 0.940284
vt 0.803364 0.940284
vt 0.803364 0.940284
vt 0.803364 0.940284
vt 0.803364 0.940284
vt 0.803364 0.940284
vt 0.803364 0.940284
vt 0.803364 0.940284
vt 0.803364 0.940284
vt 0.803364 0.940284
vt 0.803364 0.940284
vt 0.803364 0.940284
vt 0.803364 0.940284
vt 0.803364 0.940284
vt 0.803364 0.940284
vt 0.803364 0.940284
vt 0.803364 0.940284
vt 0.803364 0.940284
vt 0.803364 0.940284
vt 0.803364 0.940284
vt 0.803364 0.940284
vt 0.803364 0.940284
vt 0.803364 0.940284
vt 0.803364 0.940284
vt 0.803364 0.940284
vt 0.803364 0.940284
vt 0.803364 0.940284
vt 0.803364 0.940284
vt 0.803364 0.940284
vt 0.803364 0.940284
vt 0.803364 0.940284
vt 0.803364 0.940284
vt 0.803364 0.940284
vt 0.803364 0.940284
vt 0.803364 0.940284
vt 0.803364 0.940284
vt 0.803364 0.940284
vt 0.803364 0.940284
vt 0.803364 0.940284
vt 0.803364 0.940284
vt 0.803364 0.940284
vt 0.803364 0.940284
vt 0.803364 0.940284
vt 0.803364 0.940284
vt 0.803364 0.940284
vt 0.803364 0.940284
vt 0.803364 0.940284
vt 0.803364 0.940284
vt 0.803364 0.940284
vt 0.803364 0.940284
vt 0.803364 0.940284
vt 0.803364 0.940284
vt 0.803364 0.940284
vt 0.803364 0.940284
vt 0.803364 0.940284
vt 0.803364 0.940284
vt 0.803364 0.940284
vt 0.803364 0.940284
vt 0.803364 0.940284
vt 0.404927 0.827002
vt 0.404927 0.827002
vt 0.404927 0.827002
vt 0.404927 0.827002
vt 0.404927 0.827002
vt 0.404927 0.827002
vt 0.803364 0.940284
vt 0.404927 0.827002
vt 0.404927 0.827002
vt 0.803364 0.940284
vt 0.803364 0.940284
vt 0.803364 0.940284
vt 0.803364 0.940284
vt 0.803364 0.940284
vt 0.803364 0.940284
vt 0.803364 0.940284
vt 0.803364 0.940284
vt 0.803364 0.940284
vt 0.803364 0.940284
vt 0.803364 0.940284
vt 0.803364 0.940284
vt 0.803364 0.940284
vt 0.803364 0.940284
vt 0.404927 0.827002
vt 0.803364 0.940284
vt 0.803364 0.940284
vt 0.803364 0.940284
vt 0.803364 0.940284
vt 0.803364 0.940284
vt 0.803364 0.940284
vt 0.803364 0.940284
vt 0.803364 0.940284
vt 0.803364 0.940284
vt 0.803364 0.940284
vt 0.404927 0.815284
vt 0.404927 0.815284
vt 0.404927 0.815284
vt 0.404927 0.815284
vt 0.404927 0.815284
vt 0.404927 0.815284
vt 0.404927 0.815284
vt 0.404927 0.815284
vt 0.404927 0.815284
vt 0.404927 0.815284
vt 0.404927 0.815284
vt 0.404927 0.815284
vt 0.404927 0.815284
vt 0.404927 0.815284
vt 0.404927 0.815284
vt 0.404927 0.815284
vt 0.404927 0.815284
vt 0.404927 0.815284
vt 0.404927 0.815284
vt 0.404927 0.815284
vt 0.404927 0.815284
vt 0.404927 0.815284
vt 0.408833 0.803565
vt 0.408833 0.803565
vt 0.408833 0.803565
vt 0.408833 0.803565
vt 0.404927 0.815284
vt 0.404927 0.815284
vt 0.404927 0.815284
vt 0.404927 0.815284
vt 0.404927 0.815284
vt 0.404927 0.815284
vt 0.404927 0.815284
vt 0.404927 0.815284
vt 0.404927 0.815284
vt 0.404927 0.815284
vt 0.408833 0.803565
vt 0.408833 0.803565
vt 0.408833 0.803565
vt 0.408833 0.803565
vt 0.408833 0.803565
vt 0.408833 0.803565
vt 0.404927 0.815284
vt 0.404927 0.815284
vt 0.404927 0.815284
vt 0.408833 0.803565
vt 0.408833 0.803565
vt 0.408833 0.803565
vt 0.408833 0.803565
vt 0.408833 0.803565
vt 0.408833 0.803565
vt 0.408833 0.803565
vt 0.408833 0.803565
vt 0.404927 0.827002
vt 0.404927 0.827002
vt 0.404927 0.827002
vt 0.408833 0.803565
vt 0.408833 0.803565
vt 0.408833 0.803565
vt 0.408833 0.803565
vt 0.404927 0.827002
vt 0.404927 0.827002
vt 0.404927 0.827002
vt 0.404927 0.827002
vt 0.408833 0.803565
vt 0.408833 0.803565
vt 0.408833 0.803565
vt 0.408833 0.803565
vt 0.404927 0.815284
vt 0.404927 0.815284
vt 0.404927 0.815284
vt 0.463521 0.834815
vt 0.463521 0.834815
vt 0.463521 0.834815
vt 0.463521 0.834815
vt 0.404927 0.815284
vt 0.404927 0.815284
vt 0.404927 0.815284
vt 0.404927 0.815284
vt 0.404927 0.815284
vt 0.404927 0.815284
vt 0.404927 0.815284
vt 0.404927 0.815284
vt 0.463521 0.834815
vt 0.463521 0.834815
vt 0.463521 0.834815
vt 0.463521 0.834815
vt 0.404927 0.815284
vt 0.404927 0.815284
vt 0.803364 0.940284
vt 0.803364 0.940284
vt 0.803364 0.940284
vt 0.803364 0.940284
vt 0.404927 0.827002
vt 0.404927 0.827002
vt 0.408833 0.803565
vt 0.408833 0.803565
vt 0.404927 0.815284
vt 0.404927 0.815284
vt 0.404927 0.815284
vt 0.803364 0.940284
vt 0.803364 0.940284
vn -0.6645 0.3236 -0.6735
vn -0.1317 0.9913 0.0005
vn -0.6739 0.3218 0.6651
vn 0.0021 0.3238 -0.9461
vn 0.1317 0.9913 0.0017
vn -0.9465 0.3228 -0.0062
vn 0.9465 0.3228 0.0026
vn 0.6677 0.3218 0.6713
vn 0.0067 0.3238 -0.9461
vn 1.0000 0.0003 0.0023
vn 0.9323 0.0043 -0.3618
vn 0.0919 0.9913 0.0941
vn 0.0013 0.9913 -0.1318
vn -0.0931 0.9913 -0.0933
vn -0.0928 0.9913 0.0932
vn 0.0939 0.9913 -0.0924
vn -0.9289 0.0043 -0.3704
vn 0.9563 0.0032 0.2923
vn -0.9590 0.0032 0.2834
vn -1.0000 0.0003 -0.0070
vn 0.9345 -0.3553 -0.0201
vn 0.0023 0.0014 -1.0000
vn -0.0003 -1.0000 -0.0014
vn 0.0003 -1.0000 -0.0014
vn 0.9180 0.3964 -0.0152
vn 0.0070 0.0014 -1.0000
vn -0.9343 -0.3553 -0.0287
vn -0.9809 0.1896 -0.0430
vn 0.9922 -0.1229 -0.0213
vn -0.9178 0.3964 -0.0238
vn -0.9919 -0.1229 -0.0305
vn 1.0000 0.0077 0.0023
vn 1.0000 0.0081 0.0023
vn 0.0069 0.0014 -1.0000
vn -0.9799 -0.1992 -0.0071
vn 0.1303 -0.9915 -0.0011
vn -0.0003 1.0000 0.0014
vn -0.9999 0.0077 -0.0070
vn -0.9999 0.0081 -0.0070
vn -0.9999 0.0073 -0.0070
vn -0.9999 0.0077 -0.0069
vn -0.1148 0.9934 0.0006
vn -0.1303 -0.9915 -0.0023
vn -0.8833 0.0061 0.4688
vn 0.0003 1.0000 0.0014
vn 0.8205 0.0829 0.5657
vn -0.8677 0.0383 -0.4956
vn -0.8257 0.0829 0.5580
vn 1.0000 0.0072 0.0023
vn -0.9999 0.0072 -0.0070
vn 0.0024 0.0014 -1.0000
vn 0.9799 0.1992 0.0071
vn -0.9800 0.1992 -0.0020
vn 0.8789 0.0061 0.4770
vn 0.1148 0.9934 0.0017
vn 1.0000 0.0077 0.0024
vn 0.9800 -0.1992 0.0020
vn -0.0070 -0.0014 1.0000
vn 1.0000 0.0073 0.0023
vn 0.9813 0.1896 -0.0339
vn 0.8723 0.0383 -0.4875
vn -0.0006 0.9913 0.1315
vn -0.0000 0.9913 -0.1318
vn -0.0065 0.3211 0.9470
vn 0.6708 0.3236 -0.6673
vn -0.0023 -0.0014 1.0000
vn -0.0023 0.3211 0.9470
vn 0.0023 0.0000 -1.0000
vn 0.0000 -1.0000 -0.0014
vn -0.7120 0.0000 0.7021
vn -0.0023 0.0000 1.0000
vn 0.7055 0.0000 0.7087
vn 0.0070 0.0000 -1.0000
vn -1.0000 0.0000 -0.0070
vn 1.0000 0.0000 0.0023
vn 0.7087 0.0000 -0.7055
vn -0.7021 0.0000 -0.7120
vn -0.0070 0.0000 1.0000
vn 0.8247 -0.0406 -0.5642
vn 0.8384 -0.0489 0.5428
vn -0.8194 -0.0406 -0.5718
vn -0.8435 -0.0489 0.5350
vn 0.2822 0.9566 -0.0731
vn 0.8149 0.0071 -0.5795
vn -0.0002 0.9970 -0.0769
vn 0.0009 0.9970 -0.0769
vn 1.0000 0.0049 0.0023
vn 1.0000 0.0058 0.0023
vn 0.0005 -0.9985 -0.0556
vn 0.1505 -0.9868 -0.0596
vn -1.0000 0.0049 -0.0070
vn -0.8095 0.0071 -0.5871
vn -0.1499 -0.9868 -0.0610
vn 0.0001 -0.9985 -0.0556
vn 0.9945 0.1045 0.0024
vn 0.1349 0.9893 -0.0564
vn 0.9995 0.0078 -0.0309
vn 0.0023 0.0845 -0.9964
vn -0.9945 0.1045 -0.0068
vn 0.0070 0.0845 -0.9964
vn -0.9992 0.0078 -0.0402
vn -0.1344 0.9893 -0.0577
vn 0.9859 0.0047 0.1672
vn -0.0013 0.9372 0.3489
vn 0.5789 0.0053 -0.8154
vn -0.0020 0.9372 0.3489
vn -0.9874 0.0047 0.1580
vn -0.2815 0.9566 -0.0758
vn -1.0000 0.0059 -0.0065
vn -1.0000 0.0059 -0.0074
vn -1.0000 0.0058 -0.0070
vn -0.5713 0.0053 -0.8207
vn -0.2926 -0.9530 -0.0782
vn -0.5827 0.0021 0.8127
vn 0.5751 0.0021 0.8181
vn -0.0070 -0.0010 1.0000
vn 1.0000 0.0059 0.0028
vn 0.0267 0.0817 0.9963
vn 0.2933 -0.9530 -0.0755
vn 0.0007 0.9986 -0.0528
vn 1.0000 0.0059 0.0019
vn -0.0029 -0.9378 0.3471
vn 0.0001 -0.9968 -0.0797
vn -0.0023 -0.0010 1.0000
vn -0.0360 0.0817 0.9960
vn -0.0002 0.9986 -0.0528
vn -0.0003 -0.9378 0.3471
vn 0.0006 -0.9968 -0.0797
usemtl Material
s off
f 1/1/1 8/2/1 16/3/1 9/4/1
f 16/3/2 15/5/2 23/6/2 24/7/2
f 7/8/3 6/9/3 14/10/3 15/5/3
f 131/11/4 133/12/4 10/13/4 2/14/4
f 13/15/5 21/16/5 20/17/5 12/18/5
f 8/2/6 7/8/6 15/5/6 16/3/6
f 5/19/7 13/15/7 12/18/7 4/20/7
f 4/20/8 12/18/8 11/21/8 3/22/8
f 131/11/9 1/1/9 9/4/9 133/12/9
f 29/23/10 37/24/10 36/25/10 28/26/10
f 105/27/11 104/28/11 37/24/11 29/23/11
f 12/18/12 20/17/12 19/29/12 11/21/12
f 133/12/13 9/4/13 17/30/13 135/31/13
f 9/4/14 16/3/14 24/7/14 17/30/14
f 15/5/15 14/10/15 22/32/15 23/6/15
f 10/13/16 18/33/16 21/16/16 13/15/16
f 92/34/17 32/35/17 40/36/17 91/37/17
f 28/26/18 36/25/18 35/38/18 27/39/18
f 31/40/19 30/41/19 38/42/19 39/43/19
f 32/35/20 31/40/20 39/43/20 40/36/20
f 56/44/21 64/45/21 60/46/21 111/47/21
f 113/48/22 54/49/22 56/44/22 111/47/22
f 137/50/23 92/34/23 94/51/23 143/52/23
f 145/53/24 149/54/24 58/55/24 113/48/24
f 149/54/24 153/56/24 78/57/24 58/55/24
f 113/48/25 58/55/25 62/58/25 54/49/25
f 147/59/26 53/60/26 55/61/26 148/62/26
f 155/63/22 158/64/22 76/65/22 80/66/22
f 96/67/26 95/68/26 55/61/26 53/60/26
f 55/61/27 95/68/27 59/69/27 63/70/27
f 57/71/28 61/72/28 79/73/28 77/74/28
f 149/54/23 57/71/23 77/74/23 153/56/23
f 64/45/29 72/75/29 68/76/29 60/46/29
f 80/66/10 76/65/10 74/77/10 62/58/10
f 96/67/30 53/60/30 61/72/30 57/71/30
f 160/78/22 155/63/22 80/66/22 70/79/22
f 145/53/23 96/67/23 57/71/23 149/54/23
f 148/62/23 55/61/23 63/70/23 152/80/23
f 159/81/24 161/82/24 82/83/24 66/84/24
f 152/80/23 63/70/23 71/85/23 156/86/23
f 82/83/22 190/87/22 191/88/22 84/89/22
f 63/70/31 59/69/31 67/90/31 71/85/31
f 34/91/32 104/28/32 105/27/32 26/92/32
f 155/63/26 79/73/26 75/93/26 158/64/26
f 79/73/20 61/72/20 73/94/20 75/93/20
f 48/95/33 106/96/33 104/28/33 34/91/33
f 160/78/26 69/97/26 79/73/26 155/63/26
f 69/97/26 65/98/26 77/74/26 79/73/26
f 81/99/34 83/100/34 125/101/34 123/102/34
f 159/81/23 65/98/23 81/99/23 161/82/23
f 65/98/35 69/97/35 86/103/35 83/100/35 81/99/35
f 46/104/36 126/105/36 130/106/36 26/92/36
f 37/24/10 179/107/10 178/108/10 36/25/10
f 166/109/37 167/110/37 177/111/37 178/108/37 179/107/37 176/112/37
f 139/113/22 166/109/22 176/112/22 104/28/22
f 33/114/38 25/115/38 92/34/38 91/37/38
f 47/116/39 33/114/39 91/37/39 93/117/39
f 25/115/40 45/118/40 94/51/40 92/34/40
f 100/119/41 99/120/41 97/121/41 98/122/41
f 33/114/42 47/116/42 97/121/42 99/120/42
f 45/118/43 25/115/43 100/119/43 98/122/43
f 25/115/44 33/114/44 99/120/44 100/119/44
f 166/109/45 103/123/45 110/124/45 109/125/45 108/126/45 167/110/45
f 36/25/46 178/108/46 177/111/46 35/38/46
f 40/36/20 39/43/20 109/125/20 110/124/20
f 139/113/26 91/37/26 103/123/26 166/109/26
f 91/37/47 40/36/47 110/124/47 103/123/47
f 39/43/48 38/42/48 108/126/48 109/125/48
f 35/38/49 183/127/49 182/128/49 27/39/49
f 38/42/50 30/41/50 115/129/50 116/130/50
f 170/131/37 172/132/37 192/133/37 190/87/37
f 161/82/51 170/131/51 190/87/51 82/83/51
f 161/82/26 81/99/26 123/102/26 170/131/26
f 172/132/26 127/134/26 129/135/26 173/136/26
f 170/131/45 123/102/45 127/134/45 172/132/45
f 123/102/52 125/101/52 129/135/52 127/134/52
f 190/87/53 192/133/53 193/137/53 191/88/53
f 191/138/24 193/139/24 173/140/24 171/141/24
f 125/142/23 171/141/23 173/140/23 129/143/23
f 172/132/22 173/136/22 193/137/22 192/133/22
f 26/92/54 130/106/54 128/144/54 34/91/54
f 83/145/26 162/146/26 171/141/26 125/142/26
f 69/97/45 160/78/45 163/147/45 86/103/45
f 34/91/55 128/144/55 124/148/55 48/95/55
f 73/94/45 157/149/45 158/64/45 75/93/45
f 130/106/56 126/105/56 124/148/56 128/144/56
f 67/90/26 154/150/26 156/86/26 71/85/26
f 65/98/26 159/81/26 153/56/26 77/74/26
f 66/84/57 82/83/57 84/89/57 85/151/57 70/79/57
f 61/72/58 151/152/58 157/149/58 73/94/58
f 59/69/45 150/153/45 154/150/45 67/90/45
f 26/92/59 105/27/59 107/154/59 46/104/59
f 70/79/22 80/66/22 78/57/22 66/84/22
f 148/62/24 152/80/24 64/45/24 56/44/24
f 53/60/45 147/59/45 151/152/45 61/72/45
f 95/68/45 146/155/45 150/153/45 59/69/45
f 152/80/24 156/86/24 72/75/24 64/45/24
f 58/55/60 78/57/60 80/66/60 62/58/60
f 137/50/24 143/52/24 107/154/24 105/27/24
f 38/42/58 140/156/58 167/110/58 108/126/58
f 91/37/45 139/113/45 144/157/45 93/117/45
f 104/28/61 176/112/61 179/107/61 37/24/61
f 147/59/22 148/62/22 56/44/22 54/49/22
f 14/10/62 134/158/62 136/159/62 22/32/62
f 133/12/63 135/31/63 18/33/63 10/13/63
f 6/9/64 132/160/64 134/158/64 14/10/64
f 2/14/65 10/13/65 13/15/65 5/19/65
f 84/161/22 191/138/22 171/141/22 162/146/22
f 70/79/37 85/151/37 163/147/37 160/78/37
f 74/77/37 76/65/37 158/64/37 157/149/37
f 68/76/22 72/75/22 156/86/22 154/150/22
f 66/84/22 78/57/22 153/56/22 159/81/22
f 62/58/66 74/77/66 157/149/66 151/152/66
f 60/46/37 68/76/37 154/150/37 150/153/37
f 54/49/37 62/58/37 151/152/37 147/59/37
f 111/47/37 60/46/37 150/153/37 146/155/37
f 35/38/66 177/111/66 167/110/66 140/156/66
f 104/28/37 106/96/37 144/157/37 139/113/37
f 11/21/62 19/29/62 136/159/62 134/158/62
f 3/22/67 11/21/67 134/158/67 132/160/67
f 131/11/68 2/14/68 203/162/68 202/163/68
f 195/164/69 194/165/69 197/166/69 198/167/69 199/168/69 200/169/69 201/170/69 202/163/69 203/162/69 196/171/69
f 6/9/70 7/8/70 199/168/70 198/167/70
f 3/22/71 132/160/71 197/166/71 194/165/71
f 4/20/72 3/22/72 194/165/72 195/164/72
f 1/1/73 131/11/73 202/163/73 201/170/73
f 7/8/74 8/2/74 200/169/74 199/168/74
f 5/19/75 4/20/75 195/164/75 196/171/75
f 2/14/76 5/19/76 196/171/76 203/162/76
f 8/2/77 1/1/77 201/170/77 200/169/77
f 132/160/78 6/9/78 198/167/78 197/166/78
usemtl Material.002
f 21/172/10 29/173/10 28/174/10 20/175/10
f 18/176/79 105/177/79 29/173/79 21/172/79
f 24/178/20 23/179/20 31/180/20 32/181/20
f 20/175/80 28/174/80 27/182/80 19/183/80
f 135/184/26 17/185/26 92/186/26 137/187/26
f 17/185/81 24/178/81 32/181/81 92/186/81
f 23/179/82 22/188/82 30/189/82 31/180/82
f 185/190/83 189/191/83 187/192/83 183/193/83
f 52/194/84 174/195/84 175/196/84 50/197/84
f 140/198/85 142/199/85 43/200/85 35/201/85
f 140/198/86 38/202/86 44/203/86 142/199/86
f 41/204/87 184/205/87 185/190/87 43/200/87
f 187/192/88 189/191/88 188/206/88 186/207/88
f 143/208/89 145/209/89 113/210/89 107/211/89
f 50/197/90 175/196/90 126/212/90 46/213/90
f 42/214/91 44/203/91 118/215/91 117/216/91
f 51/217/92 49/218/92 102/219/92 101/220/92
f 49/218/93 45/221/93 98/222/93 102/219/93
f 143/208/94 94/223/94 96/224/94 145/209/94
f 84/161/95 88/225/95 90/226/95 85/227/95
f 48/228/96 124/229/96 174/195/96 52/194/96
f 52/194/97 111/230/97 106/231/97 48/228/97
f 50/197/97 113/210/97 111/230/97 52/194/97
f 162/146/98 164/232/98 88/225/98 84/161/98
f 46/213/97 107/211/97 113/210/97 50/197/97
f 83/145/99 86/233/99 89/234/99 87/235/99
f 162/146/100 83/145/100 87/235/100 164/232/100
f 49/218/101 51/217/101 95/236/101 96/224/101
f 51/217/101 47/237/101 93/238/101 95/236/101
f 45/221/101 49/218/101 96/224/101 94/223/101
f 98/222/101 97/239/101 101/220/101 102/219/101
f 47/237/102 51/217/102 101/220/102 97/239/102
f 43/200/103 181/240/103 180/241/103 41/204/103
f 142/199/104 169/242/104 181/240/104 43/200/104
f 183/243/105 187/244/105 186/245/105 182/246/105
f 142/199/106 44/203/106 114/247/106 169/242/106
f 44/203/107 42/214/107 112/248/107 114/247/107
f 118/215/108 116/249/108 120/250/108 122/251/108
f 30/189/109 42/214/109 117/216/109 115/252/109
f 44/203/110 38/202/110 116/249/110 118/215/110
f 120/250/111 119/253/111 121/254/111 122/251/111
f 116/255/112 115/256/112 119/257/112 120/258/112
f 115/252/113 117/216/113 121/254/113 119/253/113
f 117/216/114 118/215/114 122/251/114 121/254/114
f 184/205/115 188/206/115 189/191/115 185/190/115
f 112/248/116 168/259/116 169/242/116 114/247/116
f 27/182/117 182/260/117 184/205/117 41/204/117
f 89/261/45 165/262/45 164/263/45 87/264/45
f 86/233/118 163/265/118 165/266/118 89/234/118
f 182/260/119 186/207/119 188/206/119 184/205/119
f 126/212/97 175/196/97 174/195/97 124/229/97
f 93/238/120 144/267/120 146/268/120 95/236/120
f 43/200/121 185/190/121 183/193/121 35/201/121
f 42/214/122 141/269/122 168/259/122 112/248/122
f 30/189/123 138/270/123 141/269/123 42/214/123
f 22/188/58 136/271/58 138/270/58 30/189/58
f 135/184/22 137/187/22 105/177/22 18/176/22
f 180/241/124 181/240/124 169/242/124 168/259/124
f 90/272/37 88/273/37 164/263/37 165/262/37
f 85/227/125 90/226/125 165/266/125 163/265/125
f 106/231/126 111/230/126 146/268/126 144/267/126
f 41/204/127 180/241/127 168/259/127 141/269/127
f 27/182/128 41/204/128 141/269/128 138/270/128
f 19/183/66 27/182/66 138/270/66 136/271/66
