# Blender v2.90.1 OBJ File: 'noise.blend'
# www.blender.org
mtllib target_obj.mtl
o Sphere.002_Sphere.004
v 0.377821 0.184601 -0.450270
v 0.611327 0.184601 -0.728552
v 0.578856 0.184601 -0.102068
v 0.936608 0.184601 -0.165149
v 0.509037 0.184601 0.293893
v 0.823639 0.184601 0.475528
v 0.201035 0.184600 0.552337
v 0.325281 0.184600 0.893701
v -0.201034 0.184600 0.552337
v -0.325280 0.184600 0.893701
v -0.509037 0.184600 0.293893
v -0.823639 0.184600 0.475528
v -0.578855 0.184600 -0.102068
v -0.936608 0.184600 -0.165149
v -0.377821 0.184600 -0.450269
v -0.611327 0.184600 -0.728551
v -0.000000 0.184600 -0.587785
v -0.000000 0.184601 -0.951056
v 0.495296 0.184601 -0.316252
v 0.634625 0.184601 -0.482299
v 0.615250 0.184601 -0.108485
v 0.828716 0.184601 -0.146125
v 0.573590 0.184601 0.127779
v 0.761309 0.184601 0.236158
v 0.026235 0.184600 0.587065
v 0.100371 0.184600 0.790751
v -0.213674 0.184600 0.587065
v -0.287810 0.184600 0.790751
v -0.397455 0.184600 0.432854
v -0.585173 0.184600 0.541234
v -0.521530 0.184600 -0.270812
v -0.734996 0.184600 -0.308452
v -0.401576 0.184600 -0.478579
v -0.540906 0.184600 -0.644626
v -0.176135 0.184600 -0.560633
v -0.176135 0.184600 -0.777392
v 0.729090 0.501823 0.112428
v 0.772946 0.501823 -0.136291
v 0.606958 0.501823 0.041915
v 0.556018 0.501823 -0.246979
v 0.634062 0.501823 -0.111802
v 0.646668 0.501823 -0.355011
v -0.064119 0.501822 0.605015
v -0.015885 0.501822 0.737537
v -0.220207 0.501822 0.605015
v -0.268441 0.501822 0.737537
v -0.339778 0.501822 0.504683
v -0.461911 0.501822 0.575197
v -0.491899 0.501822 -0.358036
v -0.630783 0.501822 -0.382525
v -0.413855 0.501822 -0.493213
v -0.504505 0.501822 -0.601245
v -0.267180 0.501822 -0.546598
v -0.267180 0.501823 -0.687625
v 0.377821 -0.007874 -0.450270
v 0.611327 -0.007874 -0.728552
v 0.578856 -0.007874 -0.102068
v 0.936608 -0.007874 -0.165149
v 0.509037 -0.007874 0.293893
v 0.823639 -0.007874 0.475528
v 0.201035 -0.007875 0.552337
v 0.325281 -0.007875 0.893701
v -0.201034 -0.007875 0.552337
v -0.325280 -0.007875 0.893701
v -0.509037 -0.007875 0.293893
v -0.823639 -0.007875 0.475528
v -0.578855 -0.007875 -0.102068
v -0.936608 -0.007875 -0.165149
v -0.377821 -0.007875 -0.450269
v -0.611327 -0.007875 -0.728551
v -0.000000 -0.007875 -0.587785
v -0.000000 -0.007874 -0.951056
vt 0.333333 0.800000
vt 0.333333 0.600000
vt 0.333333 0.600000
vt 0.333333 0.800000
vt 0.777778 0.600000
vt 0.666667 0.600000
vt 0.666667 0.600000
vt 0.777778 0.600000
vt 0.000000 0.800000
vt 0.111111 0.800000
vt 0.111111 0.800000
vt 0.000000 0.800000
vt 0.222222 0.800000
vt 0.111111 0.800000
vt 0.111111 0.800000
vt 0.222222 0.800000
vt 0.555555 0.800000
vt 0.555555 0.600000
vt 0.555555 0.600000
vt 0.555555 0.800000
vt 0.666667 0.800000
vt 0.666667 0.800000
vt 0.888889 0.800000
vt 0.777778 0.800000
vt 0.777778 0.800000
vt 0.888889 0.800000
vt 0.222222 0.800000
vt 0.222222 0.600000
vt 0.222222 0.600000
vt 0.222222 0.800000
vt 0.111111 0.600000
vt 0.000000 0.600000
vt 0.000000 0.600000
vt 0.111111 0.600000
vt 0.444444 0.600000
vt 0.444444 0.600000
vt 0.111111 0.600000
vt 0.222222 0.600000
vt 0.222222 0.600000
vt 0.111111 0.600000
vt 0.777778 0.600000
vt 0.888889 0.600000
vt 0.888889 0.600000
vt 0.777778 0.600000
vt 0.000000 0.600000
vt 0.666667 0.600000
vt 0.666667 0.800000
vt 0.555555 0.800000
vt 0.555555 0.600000
vt 0.000000 0.800000
vt 0.888889 0.600000
vt 0.888889 0.800000
vt 0.777778 0.800000
vt 0.444444 0.600000
vt 0.444444 0.800000
vt 0.444444 0.800000
vt 0.333333 0.800000
vt 0.333333 0.600000
vt 0.444444 0.800000
vt 0.555555 0.600000
vt 0.555555 0.800000
vt 0.000000 0.800000
vt 0.000000 0.600000
vt 0.666667 0.800000
vt 0.666667 0.600000
vt 0.444444 0.600000
vt 0.444444 0.800000
vt 0.333333 0.600000
vt 0.333333 0.800000
vt 0.888889 0.600000
vt 0.777778 0.800000
vt 0.888889 0.800000
vn -0.4806 0.2759 0.8324
vn -0.3420 0.0000 -0.9397
vn 0.6428 0.0000 -0.7660
vn 0.0000 0.0565 -0.9984
vn -0.7660 0.0000 -0.6428
vn 1.0000 0.0000 -0.0000
vn 0.8646 0.0565 0.4992
vn 0.9397 0.0000 -0.3420
vn -0.6428 -0.0000 0.7660
vn 0.9712 0.1654 0.1713
vn -0.0000 0.1654 0.9862
vn -0.8541 0.1654 -0.4931
vn -0.0000 1.0000 0.0000
vn 0.9612 0.2759 -0.0000
vn -0.8646 0.0565 0.4992
vn -0.4806 0.2759 -0.8324
vn -0.3373 0.1654 -0.9267
vn 0.8541 0.1654 -0.4931
vn -0.6339 0.1654 0.7555
vn -0.7363 0.2759 -0.6178
vn 0.3415 0.0565 0.9382
vn 0.6418 0.0565 -0.7648
vn -0.9832 0.0565 -0.1734
vn -0.1669 0.2759 0.9466
vn 0.9032 0.2759 -0.3287
vn 0.0000 -1.0000 -0.0000
vn -0.1736 -0.0000 0.9848
vn 0.3420 0.0000 0.9397
vn 0.8660 0.0000 -0.5000
vn -0.8660 -0.0000 0.5000
vn 0.0000 0.0000 1.0000
vn -0.5000 0.0000 0.8660
vn 0.0000 0.0000 -1.0000
vn 0.9848 0.0000 0.1736
vn -0.8660 0.0000 -0.5000
vn -0.5000 0.0000 -0.8660
vn -0.9848 0.0000 -0.1736
vn 0.8660 0.0000 0.5000
usemtl None
s off
f 23/1/1 24/2/1 37/3/1 39/4/1
f 16/5/2 18/6/2 72/7/2 70/8/2
f 11/9/3 9/10/3 63/11/3 65/12/3
f 25/13/4 27/14/4 45/15/4 43/16/4
f 1/17/5 2/18/5 56/19/5 55/20/5
f 18/6/6 17/21/6 71/22/6 72/7/6
f 31/23/7 33/24/7 51/25/7 49/26/7
f 7/27/8 8/28/8 62/29/8 61/30/8
f 10/31/9 12/32/9 66/33/9 64/34/9
f 24/2/10 22/35/10 38/36/10 37/3/10
f 28/37/11 26/38/11 44/39/11 46/40/11
f 34/41/12 32/42/12 50/43/12 52/44/12
f 12/32/13 10/31/13 28/37/13 30/45/13
f 8/28/13 7/27/13 25/13/13 26/38/13
f 17/21/13 18/6/13 36/46/13 35/47/13
f 2/18/13 1/17/13 19/48/13 20/49/13
f 9/10/13 11/9/13 29/50/13 27/14/13
f 18/6/13 16/5/13 34/41/13 36/46/13
f 14/51/13 13/52/13 31/23/13 32/42/13
f 15/53/13 17/21/13 35/47/13 33/24/13
f 4/54/13 2/18/13 20/49/13 22/35/13
f 1/17/13 3/55/13 21/56/13 19/48/13
f 10/31/13 8/28/13 26/38/13 28/37/13
f 5/57/13 6/58/13 24/2/13 23/1/13
f 7/27/13 9/10/13 27/14/13 25/13/13
f 6/58/13 4/54/13 22/35/13 24/2/13
f 16/5/13 14/51/13 32/42/13 34/41/13
f 11/9/13 12/32/13 30/45/13 29/50/13
f 3/55/13 5/57/13 23/1/13 21/56/13
f 13/52/13 15/53/13 33/24/13 31/23/13
f 44/39/13 43/16/13 45/15/13 46/40/13
f 38/36/13 41/59/13 39/4/13 37/3/13
f 42/60/13 40/61/13 41/59/13 38/36/13
f 46/40/13 45/15/13 47/62/13 48/63/13
f 50/43/13 49/26/13 51/25/13 52/44/13
f 52/44/13 51/25/13 53/64/13 54/65/13
f 35/47/14 36/46/14 54/65/14 53/64/14
f 19/48/15 21/56/15 41/59/15 40/61/15
f 29/50/16 30/45/16 48/63/16 47/62/16
f 36/46/17 34/41/17 52/44/17 54/65/17
f 22/35/18 20/49/18 42/60/18 38/36/18
f 30/45/19 28/37/19 46/40/19 48/63/19
f 20/49/20 19/48/20 40/61/20 42/60/20
f 33/24/21 35/47/21 53/64/21 51/25/21
f 27/14/22 29/50/22 47/62/22 45/15/22
f 21/56/23 23/1/23 39/4/23 41/59/23
f 32/42/24 31/23/24 49/26/24 50/43/24
f 26/38/25 25/13/25 43/16/25 44/39/25
f 56/19/26 58/66/26 57/67/26 55/20/26
f 58/66/26 60/68/26 59/69/26 57/67/26
f 62/29/26 64/34/26 63/11/26 61/30/26
f 64/34/26 66/33/26 65/12/26 63/11/26
f 68/70/26 70/8/26 69/71/26 67/72/26
f 70/8/26 72/7/26 71/22/26 69/71/26
f 13/52/27 14/51/27 68/70/27 67/72/27
f 17/21/28 15/53/28 69/71/28 71/22/28
f 2/18/29 4/54/29 58/66/29 56/19/29
f 3/55/30 1/17/30 55/20/30 57/67/30
f 8/28/31 10/31/31 64/34/31 62/29/31
f 6/58/32 5/57/32 59/69/32 60/68/32
f 9/10/33 7/27/33 61/30/33 63/11/33
f 4/54/34 6/58/34 60/68/34 58/66/34
f 14/51/35 16/5/35 70/8/35 68/70/35
f 12/32/36 11/9/36 65/12/36 66/33/36
f 5/57/37 3/55/37 57/67/37 59/69/37
f 15/53/38 13/52/38 67/72/38 69/71/38
