# Blender v2.90.0 OBJ File: 'The_Toad_3.blend'
# www.blender.org
mtllib wheel.mtl
o Cube.002
v 0.240933 -0.400045 0.400045
v -0.240933 -0.400045 0.400045
v 0.240933 -0.522684 0.216503
v -0.240933 -0.522684 0.216503
v 0.240933 -0.565749 0.000000
v -0.240933 -0.565749 0.000000
v 0.240933 -0.522684 -0.216503
v -0.240933 -0.522684 -0.216503
v 0.240933 -0.400045 -0.400045
v -0.240933 -0.400045 -0.400045
v 0.240933 -0.216503 -0.522684
v -0.240933 -0.216503 -0.522684
v 0.240933 -0.000000 -0.565749
v -0.240933 0.000000 -0.565749
v -0.240933 -0.216503 0.522684
v 0.240933 -0.216503 0.522684
v -0.240933 -0.000000 0.565749
v 0.240933 -0.000000 0.565749
v -0.240933 0.216503 0.522684
v 0.240933 0.216503 0.522684
v -0.240933 0.400045 0.400045
v 0.240933 0.400045 0.400045
v -0.240933 0.522684 0.216503
v 0.240933 0.522684 0.216503
v -0.240933 0.565749 -0.000000
v 0.240933 0.565749 -0.000000
v -0.240933 0.522684 -0.216503
v 0.240933 0.522684 -0.216503
v -0.240933 0.400045 -0.400045
v 0.240933 0.400045 -0.400045
v -0.240933 0.216503 -0.522684
v 0.240933 0.216502 -0.522684
v 0.399895 -0.352545 0.146029
v 0.399895 -0.381593 0.000000
v 0.399895 -0.352545 -0.146029
v 0.399895 -0.269827 -0.269827
v 0.399895 -0.146029 -0.352545
v 0.399895 -0.000000 -0.381592
v 0.399895 -0.269827 0.269827
v 0.399895 -0.146029 0.352546
v 0.399895 -0.000000 0.381593
v 0.399895 0.146029 0.352546
v 0.399895 0.269827 0.269827
v 0.399895 0.352545 0.146029
v 0.399895 0.381593 0.000000
v 0.399895 0.352545 -0.146029
v 0.399895 0.269827 -0.269827
v 0.399895 0.146029 -0.352546
v 0.347534 -0.253046 0.104815
v 0.347534 -0.273895 0.000000
v 0.347534 -0.253046 -0.104815
v 0.347534 -0.193673 -0.193673
v 0.347534 -0.104815 -0.253046
v 0.347534 -0.000000 -0.273895
v 0.347534 -0.193673 0.193673
v 0.347534 -0.104815 0.253046
v 0.347534 -0.000000 0.273895
v 0.347534 0.104815 0.253046
v 0.347534 0.193673 0.193673
v 0.347534 0.253046 0.104815
v 0.347534 0.273895 -0.000000
v 0.347534 0.253046 -0.104815
v 0.347534 0.193673 -0.193673
v 0.347534 0.104815 -0.253046
v -0.382956 -0.377204 -0.156243
v -0.382956 -0.408283 0.000000
v -0.382956 0.000000 -0.408283
v -0.382956 -0.156243 -0.377204
v -0.382956 -0.288700 -0.288700
v -0.382956 -0.377204 0.156243
v -0.382956 -0.288700 0.288700
v -0.382956 -0.156243 0.377204
v -0.382956 -0.000000 0.408283
v -0.382956 0.156243 0.377204
v -0.382956 0.288700 0.288700
v -0.382956 0.377204 0.156243
v -0.382956 0.408283 -0.000000
v -0.382956 0.377204 -0.156243
v -0.382956 0.288700 -0.288700
v -0.382956 0.156243 -0.377204
v -0.382956 -0.149244 -0.061819
v -0.382956 -0.161540 -0.000000
v -0.382956 0.000000 -0.161540
v -0.382956 -0.061819 -0.149244
v -0.382956 -0.114226 -0.114226
v -0.382956 -0.149244 0.061819
v -0.382956 -0.114226 0.114226
v -0.382956 -0.061819 0.149244
v -0.382956 0.000000 0.161540
v -0.382956 0.061819 0.149244
v -0.382956 0.114226 0.114226
v -0.382956 0.149244 0.061819
v -0.382956 0.161540 -0.000000
v -0.382956 0.149244 -0.061819
v -0.382956 0.114226 -0.114226
v -0.382956 0.061819 -0.149244
v -0.992057 -0.149244 -0.061819
v -0.992057 -0.161540 0.000000
v -0.992057 0.000000 -0.161540
v -0.992057 -0.061819 -0.149244
v -0.992057 -0.114226 -0.114226
v -0.992057 -0.149244 0.061819
v -0.992057 -0.114226 0.114226
v -0.992057 -0.061819 0.149244
v -0.992057 0.000000 0.161540
v -0.992057 0.061819 0.149244
v -0.992057 0.114226 0.114226
v -0.992057 0.149244 0.061819
v -0.992057 0.161541 -0.000000
v -0.992057 0.149244 -0.061819
v -0.992057 0.114226 -0.114226
v -0.992057 0.061819 -0.149244
vt 0.855469 0.922969
vt 0.855469 0.922969
vt 0.855469 0.922969
vt 0.855469 0.922969
vt 0.855469 0.922969
vt 0.855469 0.922969
vt 0.855469 0.922969
vt 0.855469 0.922969
vt 0.855469 0.922969
vt 0.855469 0.922969
vt 0.855469 0.922969
vt 0.855469 0.922969
vt 0.855469 0.922969
vt 0.855469 0.922969
vt 0.855469 0.922969
vt 0.855469 0.922969
vt 0.855469 0.922969
vt 0.855469 0.922969
vt 0.855469 0.922969
vt 0.855469 0.922969
vt 0.855469 0.922969
vt 0.855469 0.922969
vt 0.855469 0.922969
vt 0.855469 0.922969
vt 0.855469 0.922969
vt 0.855469 0.922969
vt 0.855469 0.922969
vt 0.855469 0.922969
vt 0.855469 0.922969
vt 0.855469 0.922969
vt 0.855469 0.922969
vt 0.855469 0.922969
vt 0.855469 0.922969
vt 0.855469 0.922969
vt 0.855469 0.922969
vt 0.855469 0.922969
vt 0.855469 0.922969
vt 0.855469 0.922969
vt 0.855469 0.922969
vt 0.855469 0.922969
vt 0.855469 0.922969
vt 0.855469 0.922969
vt 0.855469 0.922969
vt 0.855469 0.922969
vt 0.855469 0.922969
vt 0.855469 0.922969
vt 0.855469 0.922969
vt 0.855469 0.922969
vt 0.855469 0.922969
vt 0.855469 0.922969
vt 0.855469 0.922969
vt 0.855469 0.922969
vt 0.855469 0.922969
vt 0.855469 0.922969
vt 0.855469 0.922969
vt 0.855469 0.922969
vt 0.855469 0.922969
vt 0.855469 0.922969
vt 0.855469 0.922969
vt 0.855469 0.922969
vt 0.855469 0.922969
vt 0.855469 0.922969
vt 0.855469 0.922969
vt 0.855469 0.922969
vt 0.855469 0.922969
vt 0.855469 0.922969
vt 0.855469 0.922969
vt 0.855469 0.922969
vt 0.855469 0.922969
vt 0.855469 0.922969
vt 0.855469 0.922969
vt 0.855469 0.922969
vt 0.855469 0.922969
vt 0.855469 0.922969
vt 0.855469 0.922969
vt 0.855469 0.922969
vt 0.855469 0.922969
vt 0.855469 0.922969
vt 0.855469 0.922969
vt 0.855469 0.922969
vt 0.855469 0.922969
vt 0.855469 0.922969
vt 0.855469 0.922969
vt 0.855469 0.922969
vt 0.855469 0.922969
vt 0.855469 0.922969
vt 0.855469 0.922969
vt 0.855469 0.922969
vt 0.855469 0.922969
vt 0.855469 0.922969
vt 0.855469 0.922969
vt 0.855469 0.922969
vt 0.855469 0.922969
vt 0.855469 0.922969
vt 0.855469 0.922969
vt 0.855469 0.922969
vt 0.855469 0.922969
vt 0.855469 0.922969
vt 0.855469 0.922969
vt 0.855469 0.922969
vt 0.855469 0.922969
vt 0.855469 0.922969
vt 0.855469 0.922969
vt 0.855469 0.922969
vt 0.855469 0.922969
vt 0.855469 0.922969
vt 0.855469 0.922969
vt 0.855469 0.922969
vt 0.855469 0.922969
vt 0.855469 0.922969
vt 0.855469 0.922969
vt 0.855469 0.922969
vt 0.320312 0.792969
vt 0.320312 0.792969
vt 0.320312 0.792969
vt 0.320312 0.792969
vt 0.320312 0.792969
vt 0.320312 0.792969
vt 0.320312 0.792969
vt 0.320312 0.792969
vt 0.320312 0.792969
vt 0.320312 0.792969
vt 0.320312 0.792969
vt 0.320312 0.792969
vt 0.320312 0.792969
vt 0.320312 0.792969
vt 0.320312 0.792969
vt 0.320312 0.792969
vn -0.0000 -0.9808 -0.1951
vn -0.0000 -0.8315 -0.5556
vn -0.0000 -0.5556 -0.8315
vn -0.0000 -0.1951 -0.9808
vn -0.0000 -0.9808 0.1951
vn -0.0000 -0.8315 0.5556
vn -0.0000 -0.5556 0.8315
vn -0.0000 -0.1951 0.9808
vn 0.0000 0.1951 0.9808
vn 0.0000 0.5556 0.8315
vn 0.0000 0.8315 0.5556
vn 0.0000 0.9808 0.1951
vn 0.0000 0.9808 -0.1951
vn 0.0000 0.8315 -0.5556
vn -0.7361 -0.1321 -0.6639
vn 0.0000 0.5556 -0.8315
vn 0.0000 0.1951 -0.9808
vn 0.7507 -0.1289 -0.6480
vn 0.8960 -0.0866 -0.4356
vn 0.7507 -0.3670 0.5493
vn 0.7507 0.6480 0.1289
vn 0.7507 -0.3670 -0.5493
vn 0.7507 0.3670 0.5493
vn 0.7507 0.3670 -0.5493
vn 0.7507 -0.6480 0.1289
vn 0.7507 -0.1289 0.6480
vn 0.7507 -0.6480 -0.1289
vn 0.7507 0.6480 -0.1289
vn 0.7507 -0.5493 -0.3670
vn 0.7507 -0.5493 0.3670
vn 0.7507 0.5493 0.3670
vn 0.7507 0.1289 -0.6480
vn 0.7507 0.1289 0.6480
vn 0.7507 0.5493 -0.3670
vn 0.8960 0.4356 0.0866
vn 0.8960 -0.2467 -0.3693
vn 0.8960 0.3693 0.2467
vn 0.8960 -0.3693 -0.2467
vn 0.8960 0.0866 0.4356
vn 0.8960 -0.4356 -0.0866
vn 0.8960 0.2467 0.3693
vn 0.8960 -0.4356 0.0866
vn 0.8960 0.3693 -0.2467
vn 0.8960 -0.3693 0.2467
vn 0.8960 0.2467 -0.3693
vn 0.8960 -0.2467 0.3693
vn 0.8960 0.0866 -0.4356
vn 0.8960 0.4356 -0.0866
vn 0.8960 -0.0866 0.4356
vn -1.0000 0.0000 0.0000
vn -0.7361 -0.1321 0.6639
vn -0.7361 0.6639 -0.1321
vn -0.7361 -0.5628 0.3761
vn -0.7361 0.5628 0.3761
vn -0.7361 0.1321 -0.6639
vn -0.7361 -0.5628 -0.3761
vn -0.7361 -0.3761 -0.5628
vn -0.7361 0.1321 0.6639
vn -0.7361 0.5628 -0.3761
vn -0.7361 -0.6639 -0.1321
vn -0.7361 -0.3761 0.5628
vn -0.7361 0.6639 0.1321
vn -0.7361 -0.6639 0.1321
vn -0.7361 0.3761 0.5628
vn -0.7361 0.3761 -0.5628
vn 1.0000 -0.0000 -0.0000
usemtl Material
s off
f 8/1/1 7/2/1 5/3/1 6/4/1
f 10/5/2 9/6/2 7/2/2 8/1/2
f 12/7/3 11/8/3 9/6/3 10/5/3
f 14/9/4 13/10/4 11/8/4 12/7/4
f 6/4/5 5/3/5 3/11/5 4/12/5
f 4/12/6 3/11/6 1/13/6 2/14/6
f 2/14/7 1/13/7 16/15/7 15/16/7
f 15/16/8 16/15/8 18/17/8 17/18/8
f 17/18/9 18/17/9 20/19/9 19/20/9
f 19/20/10 20/19/10 22/21/10 21/22/10
f 21/22/11 22/21/11 24/23/11 23/24/11
f 23/24/12 24/23/12 26/25/12 25/26/12
f 25/26/13 26/25/13 28/27/13 27/28/13
f 27/28/14 28/27/14 30/29/14 29/30/14
f 14/9/15 12/7/15 68/31/15 67/32/15
f 29/30/16 30/29/16 32/33/16 31/34/16
f 31/34/17 32/33/17 13/10/17 14/9/17
f 11/8/18 13/10/18 38/35/18 37/36/18
f 42/37/19 41/38/19 57/39/19 58/40/19
f 16/15/20 1/13/20 39/41/20 40/42/20
f 26/25/21 24/23/21 44/43/21 45/44/21
f 9/6/22 11/8/22 37/36/22 36/45/22
f 22/21/23 20/19/23 42/37/23 43/46/23
f 32/33/24 30/29/24 47/47/24 48/48/24
f 3/11/25 5/3/25 34/49/25 33/50/25
f 18/17/26 16/15/26 40/42/26 41/38/26
f 5/3/27 7/2/27 35/51/27 34/49/27
f 28/27/28 26/25/28 45/44/28 46/52/28
f 7/2/29 9/6/29 36/45/29 35/51/29
f 1/13/30 3/11/30 33/50/30 39/41/30
f 24/23/31 22/21/31 43/46/31 44/43/31
f 13/10/32 32/33/32 48/48/32 38/35/32
f 20/19/33 18/17/33 41/38/33 42/37/33
f 30/29/34 28/27/34 46/52/34 47/47/34
f 34/49/35 35/51/35 51/53/35 50/54/35
f 43/46/36 42/37/36 58/40/36 59/55/36
f 35/51/37 36/45/37 52/56/37 51/53/37
f 44/43/38 43/46/38 59/55/38 60/57/38
f 37/36/39 38/35/39 54/58/39 53/59/39
f 45/44/40 44/43/40 60/57/40 61/60/40
f 36/45/41 37/36/41 53/59/41 52/56/41
f 46/52/42 45/44/42 61/60/42 62/61/42
f 39/41/43 33/50/43 49/62/43 55/63/43
f 47/47/44 46/52/44 62/61/44 63/64/44
f 40/42/45 39/41/45 55/63/45 56/65/45
f 48/48/46 47/47/46 63/64/46 64/66/46
f 41/38/47 40/42/47 56/65/47 57/39/47
f 33/50/48 34/49/48 50/54/48 49/62/48
f 38/35/49 48/48/49 64/66/49 54/58/49
f 78/67/50 79/68/50 95/69/50 94/70/50
f 15/16/51 17/18/51 73/71/51 72/72/51
f 25/26/52 27/28/52 78/67/52 77/73/52
f 4/12/53 2/14/53 71/74/53 70/75/53
f 21/22/54 23/24/54 76/76/54 75/77/54
f 31/34/55 14/9/55 67/32/55 80/78/55
f 10/5/56 8/1/56 65/79/56 69/80/56
f 12/7/57 10/5/57 69/80/57 68/31/57
f 17/18/58 19/20/58 74/81/58 73/71/58
f 27/28/59 29/30/59 79/68/59 78/67/59
f 8/1/60 6/4/60 66/82/60 65/79/60
f 2/14/61 15/16/61 72/72/61 71/74/61
f 23/24/62 25/26/62 77/73/62 76/76/62
f 6/4/63 4/12/63 70/75/63 66/82/63
f 19/20/64 21/22/64 75/77/64 74/81/64
f 29/30/65 31/34/65 80/78/65 79/68/65
f 84/83/3 85/84/3 101/85/3 100/86/3
f 71/74/50 72/72/50 88/87/50 87/88/50
f 79/68/50 80/78/50 96/89/50 95/69/50
f 72/72/50 73/71/50 89/90/50 88/87/50
f 65/79/50 66/82/50 82/91/50 81/92/50
f 80/78/50 67/32/50 83/93/50 96/89/50
f 73/71/50 74/81/50 90/94/50 89/90/50
f 67/32/50 68/31/50 84/83/50 83/93/50
f 74/81/50 75/77/50 91/95/50 90/94/50
f 69/80/50 65/79/50 81/92/50 85/84/50
f 75/77/50 76/76/50 92/96/50 91/95/50
f 68/31/50 69/80/50 85/84/50 84/83/50
f 76/76/50 77/73/50 93/97/50 92/96/50
f 66/82/50 70/75/50 86/98/50 82/91/50
f 77/73/50 78/67/50 94/70/50 93/97/50
f 70/75/50 71/74/50 87/88/50 86/98/50
f 97/99/50 98/100/50 102/101/50 103/102/50 104/103/50 105/104/50 106/105/50 107/106/50 108/107/50 109/108/50 110/109/50 111/110/50 112/111/50 99/112/50 100/86/50 101/85/50
f 92/96/12 93/97/12 109/108/12 108/107/12
f 82/91/5 86/98/5 102/101/5 98/100/5
f 93/97/13 94/70/13 110/109/13 109/108/13
f 86/98/6 87/88/6 103/102/6 102/101/6
f 94/70/14 95/69/14 111/110/14 110/109/14
f 87/88/7 88/87/7 104/103/7 103/102/7
f 95/69/16 96/89/16 112/111/16 111/110/16
f 88/87/8 89/90/8 105/104/8 104/103/8
f 81/92/1 82/91/1 98/100/1 97/99/1
f 96/89/17 83/93/17 99/112/17 112/111/17
f 89/90/9 90/94/9 106/105/9 105/104/9
f 83/93/4 84/83/4 100/86/4 99/112/4
f 90/94/10 91/95/10 107/106/10 106/105/10
f 85/84/2 81/92/2 97/99/2 101/85/2
f 91/95/11 92/96/11 108/107/11 107/106/11
usemtl Material.012
f 52/113/66 53/114/66 54/115/66 64/116/66 63/117/66 62/118/66 61/119/66 60/120/66 59/121/66 58/122/66 57/123/66 56/124/66 55/125/66 49/126/66 50/127/66 51/128/66
