# Blender v2.90.1 OBJ File: 'ultimate.blend'
# www.blender.org
mtllib arrows.mtl
o Cylinder.020_Cylinder.009
v -2.268058 -0.201068 -2.521557
v 2.176332 -0.201068 -2.595436
v 2.722095 -0.201068 -2.067520
v 2.795973 -0.201068 2.376869
v 2.268058 -0.201068 2.922632
v -2.176332 -0.201068 2.996510
v -2.722095 -0.201068 2.468595
v -2.795973 -0.201068 -1.975794
v -1.879987 -0.201068 -1.627021
v 1.818206 -0.201068 -1.688495
v 1.827558 -0.201068 -1.679450
v 1.889033 -0.201068 2.018744
v 1.879987 -0.201068 2.028095
v -1.818207 -0.201068 2.089570
v -1.827559 -0.201068 2.080524
v -1.889033 -0.201068 -1.617669
vt 0.250000 1.000000
vt 0.375000 1.000000
vt 0.375000 1.000000
vt 0.250000 1.000000
vt 0.500000 1.000000
vt 0.625000 1.000000
vt 0.625000 1.000000
vt 0.500000 1.000000
vt 0.750000 1.000000
vt 0.875000 1.000000
vt 0.875000 1.000000
vt 0.750000 1.000000
vt 0.000000 1.000000
vt 0.125000 1.000000
vt 0.125000 1.000000
vt 0.000000 1.000000
vn 0.0000 1.0000 -0.0000
usemtl None
s off
f 7/1/1 6/2/1 14/3/1 15/4/1
f 5/5/1 4/6/1 12/7/1 13/8/1
f 3/9/1 2/10/1 10/11/1 11/12/1
f 1/13/1 8/14/1 16/15/1 9/16/1
