# Blender v2.90.0 OBJ File: 'big_foot_0_1.blend'
# www.blender.org
mtllib big_foot_wheel.mtl
o Cube.002
v 0.528645 -0.065973 -0.024453
v 0.528645 -0.011809 -0.069360
v 0.528645 0.054164 -0.044906
v 0.528645 0.065973 0.024454
v 0.528645 0.011809 0.069361
v 0.528645 -0.054164 0.044908
v 0.528645 -0.044907 -0.054163
v 0.528645 0.024454 -0.065972
v 0.528645 0.069361 -0.011808
v 0.528645 0.044907 0.054165
v 0.528645 -0.024454 0.065973
v 0.528645 -0.069361 0.011810
v 0.528645 -0.920174 -0.341076
v 0.528645 -0.164706 -0.967432
v 0.528645 0.755467 -0.626357
v 0.528645 0.920173 0.341076
v 0.528645 0.164706 0.967432
v 0.528645 -0.755467 0.626357
v 0.528645 -0.626356 -0.755469
v 0.528645 0.341076 -0.920172
v 0.528645 0.967432 -0.164707
v 0.528645 0.626356 0.755468
v 0.528645 -0.341076 0.920172
v 0.528645 -0.967432 0.164707
v 0.461558 -0.987628 -0.366079
v 0.461558 -0.176780 -1.038350
v 0.461558 0.810848 -0.672272
v 0.461558 0.987628 0.366079
v 0.461558 0.176780 1.038351
v 0.461558 -0.810847 0.672272
v 0.461558 -0.672272 -0.810849
v 0.461558 0.366079 -0.987627
v 0.461558 1.038351 -0.176781
v 0.461558 0.672272 0.810848
v 0.461558 -0.366079 0.987627
v 0.461558 -1.038351 0.176781
v 0.114512 -0.987628 -0.366079
v 0.114512 -0.176780 -1.038350
v 0.114512 0.810848 -0.672272
v 0.114512 0.987628 0.366079
v 0.114512 0.176780 1.038351
v 0.114512 -0.810847 0.672272
v 0.114512 -0.672272 -0.810849
v 0.114512 0.366079 -0.987627
v 0.114512 1.038351 -0.176781
v 0.114512 0.672272 0.810848
v 0.114512 -0.366079 0.987627
v 0.114512 -1.038351 0.176781
v 0.051275 -0.938446 -0.347849
v 0.051275 -0.167977 -0.986642
v 0.051275 0.770469 -0.638795
v 0.051275 0.938446 0.347849
v 0.051275 0.167977 0.986643
v 0.051275 -0.770469 0.638795
v 0.051275 -0.638794 -0.770470
v 0.051275 0.347849 -0.938444
v 0.051275 0.986643 -0.167978
v 0.051275 0.638794 0.770470
v 0.051275 -0.347849 0.938445
v 0.051275 -0.986643 0.167978
v 0.051275 -0.592553 -0.219639
v 0.051275 -0.106064 -0.622986
v 0.051275 0.486489 -0.403348
v 0.051275 0.592553 0.219639
v 0.051275 0.106064 0.622986
v 0.051275 -0.486489 0.403348
v 0.051275 -0.403347 -0.486490
v 0.051275 0.219639 -0.592552
v 0.051275 0.622986 -0.106065
v 0.051275 0.403347 0.486490
v 0.051275 -0.219639 0.592553
v 0.051275 -0.622986 0.106065
v -0.051275 -0.592553 -0.219639
v -0.051275 -0.106064 -0.622986
v -0.051275 0.486489 -0.403348
v -0.051275 0.592553 0.219639
v -0.051275 0.106064 0.622986
v -0.051275 -0.486489 0.403348
v -0.051275 -0.403347 -0.486490
v -0.051275 0.219639 -0.592552
v -0.051275 0.622986 -0.106065
v -0.051275 0.403347 0.486490
v -0.051275 -0.219639 0.592553
v -0.051275 -0.622986 0.106065
v -0.051275 -0.918451 -0.340437
v -0.051275 -0.164398 -0.965620
v -0.051275 0.754053 -0.625184
v -0.051275 0.918450 0.340437
v -0.051275 0.164398 0.965620
v -0.051275 -0.754052 0.625184
v -0.051275 -0.625183 -0.754054
v -0.051275 0.340437 -0.918449
v -0.051275 0.965621 -0.164399
v -0.051275 0.625183 0.754054
v -0.051275 -0.340437 0.918450
v -0.051275 -0.965620 0.164399
v -0.122221 -0.986620 -0.365705
v -0.122221 -0.176600 -1.037290
v -0.122221 0.810020 -0.671586
v -0.122221 0.986620 0.365705
v -0.122221 0.176600 1.037291
v -0.122221 -0.810020 0.671586
v -0.122221 -0.671586 -0.810022
v -0.122221 0.365705 -0.986619
v -0.122221 1.037291 -0.176601
v -0.122221 0.671586 0.810021
v -0.122221 -0.365705 0.986619
v -0.122221 -1.037291 0.176601
v -0.458701 -0.986620 -0.365705
v -0.458701 -0.176600 -1.037290
v -0.458701 0.810020 -0.671586
v -0.458701 0.986620 0.365705
v -0.458701 0.176600 1.037291
v -0.458701 -0.810020 0.671586
v -0.458701 -0.671586 -0.810022
v -0.458701 0.365705 -0.986619
v -0.458701 1.037291 -0.176601
v -0.458701 0.671586 0.810021
v -0.458701 -0.365705 0.986619
v -0.458701 -1.037291 0.176601
v -0.518069 -0.937454 -0.347481
v -0.518069 -0.167799 -0.985600
v -0.518069 0.769655 -0.638119
v -0.518069 0.937454 0.347481
v -0.518069 0.167799 0.985600
v -0.518069 -0.769655 0.638119
v -0.518069 -0.638119 -0.769657
v -0.518069 0.347481 -0.937453
v -0.518069 0.985600 -0.167801
v -0.518069 0.638119 0.769656
v -0.518069 -0.347481 0.937454
v -0.518069 -0.985600 0.167801
v -0.518069 -0.426478 -0.514389
v -0.518069 -0.112146 -0.658712
v -0.518069 0.232234 -0.626534
v -0.518069 0.514388 -0.426479
v -0.518069 0.658712 -0.112147
v -0.518069 0.626534 0.232234
v -0.518069 0.426478 0.514389
v -0.518069 0.112146 0.658712
v -0.518069 -0.232234 0.626534
v -0.518069 -0.514388 0.426478
v -0.518069 -0.658712 0.112148
v -0.518069 -0.626535 -0.232234
v -0.599591 -0.299910 -0.361732
v -0.599591 -0.078864 -0.463223
v -0.599591 0.163313 -0.440595
v -0.599591 0.361731 -0.299911
v -0.599591 0.463224 -0.078865
v -0.599591 0.440595 0.163313
v -0.599591 0.299910 0.361731
v -0.599591 0.078864 0.463224
v -0.599591 -0.163313 0.440595
v -0.599591 -0.361731 0.299911
v -0.599591 -0.463224 0.078865
v -0.599591 -0.440595 -0.163313
vt 0.803364 0.940284
vt 0.803364 0.940284
vt 0.803364 0.940284
vt 0.803364 0.940284
vt 0.803364 0.940284
vt 0.803364 0.940284
vt 0.803364 0.940284
vt 0.803364 0.940284
vt 0.803365 0.940284
vt 0.803365 0.940284
vt 0.803365 0.940284
vt 0.803365 0.940284
vt 0.803364 0.940284
vt 0.803364 0.940284
vt 0.803364 0.940284
vt 0.803364 0.940284
vt 0.803364 0.940284
vt 0.803365 0.940284
vt 0.803365 0.940284
vt 0.803365 0.940284
vt 0.803365 0.940284
vt 0.803364 0.940284
vt 0.803364 0.940284
vt 0.803364 0.940284
vt 0.803365 0.940284
vt 0.803365 0.940284
vt 0.803365 0.940284
vt 0.803365 0.940284
vt 0.803365 0.940284
vt 0.803365 0.940284
vt 0.803364 0.940284
vt 0.803365 0.940284
vt 0.803364 0.940284
vt 0.803364 0.940284
vt 0.803364 0.940284
vt 0.803365 0.940284
vt 0.803365 0.940284
vt 0.803364 0.940284
vt 0.803365 0.940284
vt 0.803365 0.940284
vt 0.803365 0.940284
vt 0.803364 0.940284
vt 0.803364 0.940284
vt 0.803364 0.940284
vt 0.803365 0.940284
vt 0.803364 0.940284
vt 0.803364 0.940284
vt 0.803364 0.940284
vt 0.803365 0.940284
vt 0.803364 0.940284
vt 0.803365 0.940284
vt 0.803365 0.940284
vt 0.803365 0.940284
vt 0.803364 0.940284
vt 0.803364 0.940284
vt 0.803364 0.940284
vt 0.803365 0.940284
vt 0.803364 0.940284
vt 0.803364 0.940284
vt 0.803364 0.940284
vt 0.803365 0.940284
vt 0.803364 0.940284
vt 0.803364 0.940284
vt 0.803364 0.940284
vt 0.803364 0.940284
vt 0.803364 0.940284
vt 0.803365 0.940284
vt 0.803364 0.940284
vt 0.803364 0.940284
vt 0.803365 0.940284
vt 0.803364 0.940284
vt 0.803364 0.940284
vt 0.803364 0.940284
vt 0.803365 0.940284
vt 0.803364 0.940284
vt 0.803364 0.940284
vt 0.803364 0.940284
vt 0.803365 0.940284
vt 0.803365 0.940284
vt 0.803365 0.940284
vt 0.803364 0.940284
vt 0.803364 0.940284
vt 0.803365 0.940284
vt 0.803364 0.940284
vt 0.803364 0.940284
vt 0.803365 0.940284
vt 0.803365 0.940284
vt 0.803365 0.940284
vt 0.803365 0.940284
vt 0.803365 0.940284
vt 0.803364 0.940284
vt 0.803365 0.940284
vt 0.803365 0.940284
vt 0.803364 0.940284
vt 0.803364 0.940284
vt 0.803365 0.940284
vt 0.803364 0.940284
vt 0.803364 0.940284
vt 0.803364 0.940284
vt 0.803364 0.940284
vt 0.803365 0.940284
vt 0.803364 0.940284
vt 0.803364 0.940284
vt 0.803364 0.940284
vt 0.803365 0.940284
vt 0.803365 0.940284
vt 0.803364 0.940284
vt 0.803364 0.940284
vt 0.803365 0.940284
vt 0.803364 0.940284
vt 0.803364 0.940284
vt 0.803365 0.940284
vt 0.803365 0.940284
vt 0.803364 0.940284
vt 0.803364 0.940284
vt 0.803364 0.940284
vt 0.803365 0.940284
vt 0.803365 0.940284
vt 0.803364 0.940284
vt 0.803364 0.940284
vt 0.803365 0.940284
vt 0.803364 0.940284
vt 0.803364 0.940284
vt 0.803365 0.940284
vt 0.803365 0.940284
vt 0.803364 0.940284
vt 0.803365 0.940284
vt 0.803364 0.940284
vt 0.803364 0.940284
vt 0.803365 0.940284
vt 0.803365 0.940284
vt 0.803364 0.940284
vt 0.803364 0.940284
vt 0.803364 0.940284
vt 0.803364 0.940284
vt 0.803365 0.940284
vt 0.803365 0.940284
vt 0.803364 0.940284
vt 0.803364 0.940284
vt 0.803365 0.940284
vt 0.803365 0.940284
vt 0.803364 0.940284
vt 0.803364 0.940284
vt 0.803364 0.940284
vt 0.830708 0.670752
vt 0.830708 0.670752
vt 0.830708 0.670752
vt 0.830708 0.670752
vt 0.830708 0.670753
vt 0.830708 0.670753
vt 0.830708 0.670752
vt 0.830708 0.670752
vt 0.830708 0.670752
vt 0.830708 0.670753
vt 0.830708 0.670753
vt 0.830708 0.670753
vt 0.830708 0.670753
vt 0.830708 0.670753
vt 0.830708 0.670752
vt 0.830708 0.670753
vt 0.830708 0.670753
vt 0.830708 0.670752
vt 0.830708 0.670753
vt 0.830708 0.670753
vt 0.830708 0.670753
vt 0.830708 0.670753
vt 0.830708 0.670752
vt 0.830708 0.670753
vn 1.0000 -0.0000 -0.0000
vn 0.7194 0.4017 -0.5666
vn 0.0000 -0.9088 0.4173
vn 0.7194 0.6312 -0.2898
vn 0.7194 -0.6916 -0.0646
vn 0.7194 0.6916 0.0646
vn 0.7194 0.5666 0.4017
vn 0.7194 -0.5666 -0.4017
vn 0.7194 0.2898 0.6312
vn 0.7194 -0.0646 0.6916
vn 0.7194 -0.2898 -0.6312
vn 0.7194 0.0646 -0.6916
vn 0.7194 -0.4017 0.5666
vn 0.7194 -0.6312 0.2898
vn -0.6253 -0.4514 0.6366
vn 0.0000 0.5784 -0.8158
vn 0.0000 0.9088 -0.4173
vn 0.0000 -0.9957 -0.0930
vn 0.0000 0.9957 0.0930
vn 0.0000 0.8158 0.5784
vn 0.0000 -0.8158 -0.5784
vn 0.0000 0.4173 0.9088
vn 0.0000 -0.0930 0.9957
vn 0.0000 -0.4173 -0.9088
vn 0.0000 0.0930 -0.9957
vn 0.0000 -0.5784 0.8158
vn -1.0000 0.0000 0.0000
vn -0.6253 -0.7092 0.3256
vn -0.6253 0.4514 -0.6366
vn -0.6253 0.7092 -0.3256
vn -0.6253 -0.7770 -0.0726
vn -0.6253 0.7770 0.0726
vn -0.6253 0.6366 0.4514
vn -0.6253 -0.6366 -0.4514
vn -0.6253 0.3256 0.7092
vn -0.6253 -0.0726 0.7770
vn -0.6253 -0.3256 -0.7092
vn -0.6253 0.0726 -0.7770
vn 0.7035 -0.0661 0.7076
vn 0.7035 -0.2966 -0.6459
vn 0.7035 0.0661 -0.7076
vn 0.7035 -0.4111 0.5798
vn 0.7035 -0.6459 0.2966
vn 0.7035 0.4111 -0.5798
vn 0.7035 0.6459 -0.2966
vn 0.7035 -0.7076 -0.0661
vn 0.7035 0.7076 0.0661
vn 0.7035 0.5798 0.4111
vn 0.7035 -0.5798 -0.4111
vn 0.7035 0.2966 0.6459
vn -0.6490 0.3174 0.6914
vn -0.6490 -0.0708 0.7575
vn -0.6490 -0.3174 -0.6914
vn -0.6490 0.0708 -0.7575
vn -0.6490 -0.4400 0.6206
vn -0.6490 -0.6914 0.3174
vn -0.6490 0.4400 -0.6206
vn -0.6490 0.6914 -0.3174
vn -0.6490 -0.7575 -0.0708
vn -0.6490 0.7575 0.0708
vn -0.6490 0.6206 0.4400
vn -0.6490 -0.6206 -0.4400
vn -0.9201 0.2265 -0.3195
vn -0.9201 0.3559 -0.1634
vn -0.9201 -0.3899 -0.0364
vn -0.9201 0.3899 0.0364
vn -0.9201 0.3195 0.2265
vn -0.9201 -0.3195 -0.2265
vn -0.9201 0.1634 0.3559
vn -0.9201 -0.0364 0.3899
vn -0.9201 -0.1634 -0.3559
vn -0.9201 0.0364 -0.3899
vn -0.9201 -0.2265 0.3195
vn -0.9201 -0.3559 0.1634
usemtl Material
s off
f 4/1/1 9/2/1 21/3/1 16/4/1
f 15/5/2 20/6/2 32/7/2 27/8/2
f 11/9/1 5/10/1 17/11/1 23/12/1
f 8/13/1 2/14/1 14/15/1 20/6/1
f 5/10/1 10/16/1 22/17/1 17/11/1
f 12/18/1 6/19/1 18/20/1 24/21/1
f 2/14/1 7/22/1 19/23/1 14/15/1
f 9/2/1 3/24/1 15/5/1 21/3/1
f 6/19/1 11/9/1 23/12/1 18/20/1
f 3/24/1 8/13/1 20/6/1 15/5/1
f 10/16/1 4/1/1 16/4/1 22/17/1
f 1/25/1 12/18/1 24/21/1 13/26/1
f 7/22/1 1/25/1 13/26/1 19/23/1
f 36/27/3 30/28/3 42/29/3 48/30/3
f 21/3/4 15/5/4 27/8/4 33/31/4
f 13/26/5 24/21/5 36/27/5 25/32/5
f 16/4/6 21/3/6 33/31/6 28/33/6
f 22/17/7 16/4/7 28/33/7 34/34/7
f 19/23/8 13/26/8 25/32/8 31/35/8
f 17/11/9 22/17/9 34/34/9 29/36/9
f 23/12/10 17/11/10 29/36/10 35/37/10
f 14/15/11 19/23/11 31/35/11 26/38/11
f 20/6/12 14/15/12 26/38/12 32/7/12
f 18/20/13 23/12/13 35/37/13 30/28/13
f 24/21/14 18/20/14 30/28/14 36/27/14
f 42/29/15 47/39/15 59/40/15 54/41/15
f 27/8/16 32/7/16 44/42/16 39/43/16
f 33/31/17 27/8/17 39/43/17 45/44/17
f 25/32/18 36/27/18 48/30/18 37/45/18
f 28/33/19 33/31/19 45/44/19 40/46/19
f 34/34/20 28/33/20 40/46/20 46/47/20
f 31/35/21 25/32/21 37/45/21 43/48/21
f 29/36/22 34/34/22 46/47/22 41/49/22
f 35/37/23 29/36/23 41/49/23 47/39/23
f 26/38/24 31/35/24 43/48/24 38/50/24
f 32/7/25 26/38/25 38/50/25 44/42/25
f 30/28/26 35/37/26 47/39/26 42/29/26
f 54/41/27 59/40/27 71/51/27 66/52/27
f 48/30/28 42/29/28 54/41/28 60/53/28
f 39/43/29 44/42/29 56/54/29 51/55/29
f 45/44/30 39/43/30 51/55/30 57/56/30
f 37/45/31 48/30/31 60/53/31 49/57/31
f 40/46/32 45/44/32 57/56/32 52/58/32
f 46/47/33 40/46/33 52/58/33 58/59/33
f 43/48/34 37/45/34 49/57/34 55/60/34
f 41/49/35 46/47/35 58/59/35 53/61/35
f 47/39/36 41/49/36 53/61/36 59/40/36
f 38/50/37 43/48/37 55/60/37 50/62/37
f 44/42/38 38/50/38 50/62/38 56/54/38
f 68/63/25 62/64/25 74/65/25 80/66/25
f 60/53/27 54/41/27 66/52/27 72/67/27
f 51/55/27 56/54/27 68/63/27 63/68/27
f 57/56/27 51/55/27 63/68/27 69/69/27
f 49/57/27 60/53/27 72/67/27 61/70/27
f 52/58/27 57/56/27 69/69/27 64/71/27
f 58/59/27 52/58/27 64/71/27 70/72/27
f 55/60/27 49/57/27 61/70/27 67/73/27
f 53/61/27 58/59/27 70/72/27 65/74/27
f 59/40/27 53/61/27 65/74/27 71/51/27
f 50/62/27 55/60/27 67/73/27 62/64/27
f 56/54/27 50/62/27 62/64/27 68/63/27
f 74/65/1 79/75/1 91/76/1 86/77/1
f 66/52/26 71/51/26 83/78/26 78/79/26
f 72/67/3 66/52/3 78/79/3 84/80/3
f 63/68/16 68/63/16 80/66/16 75/81/16
f 69/69/17 63/68/17 75/81/17 81/82/17
f 61/70/18 72/67/18 84/80/18 73/83/18
f 64/71/19 69/69/19 81/82/19 76/84/19
f 70/72/20 64/71/20 76/84/20 82/85/20
f 67/73/21 61/70/21 73/83/21 79/75/21
f 65/74/22 70/72/22 82/85/22 77/86/22
f 71/51/23 65/74/23 77/86/23 83/78/23
f 62/64/24 67/73/24 79/75/24 74/65/24
f 95/87/39 89/88/39 101/89/39 107/90/39
f 80/66/1 74/65/1 86/77/1 92/91/1
f 78/79/1 83/78/1 95/87/1 90/92/1
f 84/80/1 78/79/1 90/92/1 96/93/1
f 75/81/1 80/66/1 92/91/1 87/94/1
f 81/82/1 75/81/1 87/94/1 93/95/1
f 73/83/1 84/80/1 96/93/1 85/96/1
f 76/84/1 81/82/1 93/95/1 88/97/1
f 82/85/1 76/84/1 88/97/1 94/98/1
f 79/75/1 73/83/1 85/96/1 91/76/1
f 77/86/1 82/85/1 94/98/1 89/88/1
f 83/78/1 77/86/1 89/88/1 95/87/1
f 101/89/22 106/99/22 118/100/22 113/101/22
f 86/77/40 91/76/40 103/102/40 98/103/40
f 92/91/41 86/77/41 98/103/41 104/104/41
f 90/92/42 95/87/42 107/90/42 102/105/42
f 96/93/43 90/92/43 102/105/43 108/106/43
f 87/94/44 92/91/44 104/104/44 99/107/44
f 93/95/45 87/94/45 99/107/45 105/108/45
f 85/96/46 96/93/46 108/106/46 97/109/46
f 88/97/47 93/95/47 105/108/47 100/110/47
f 94/98/48 88/97/48 100/110/48 106/99/48
f 91/76/49 85/96/49 97/109/49 103/102/49
f 89/88/50 94/98/50 106/99/50 101/89/50
f 113/101/51 118/100/51 130/111/51 125/112/51
f 107/90/23 101/89/23 113/101/23 119/113/23
f 98/103/24 103/102/24 115/114/24 110/115/24
f 104/104/25 98/103/25 110/115/25 116/116/25
f 102/105/26 107/90/26 119/113/26 114/117/26
f 108/106/3 102/105/3 114/117/3 120/118/3
f 99/107/16 104/104/16 116/116/16 111/119/16
f 105/108/17 99/107/17 111/119/17 117/120/17
f 97/109/18 108/106/18 120/118/18 109/121/18
f 100/110/19 105/108/19 117/120/19 112/122/19
f 106/99/20 100/110/20 112/122/20 118/100/20
f 103/102/21 97/109/21 109/121/21 115/114/21
f 127/123/27 121/124/27 144/125/27 133/126/27
f 119/113/52 113/101/52 125/112/52 131/127/52
f 110/115/53 115/114/53 127/123/53 122/128/53
f 116/116/54 110/115/54 122/128/54 128/129/54
f 114/117/55 119/113/55 131/127/55 126/130/55
f 120/118/56 114/117/56 126/130/56 132/131/56
f 111/119/57 116/116/57 128/129/57 123/132/57
f 117/120/58 111/119/58 123/132/58 129/133/58
f 109/121/59 120/118/59 132/131/59 121/124/59
f 112/122/60 117/120/60 129/133/60 124/134/60
f 118/100/61 112/122/61 124/134/61 130/111/61
f 115/114/62 109/121/62 121/124/62 127/123/62
f 125/112/27 130/111/27 139/135/27 140/136/27
f 131/127/27 125/112/27 140/136/27 141/137/27
f 122/128/27 127/123/27 133/126/27 134/138/27
f 128/129/27 122/128/27 134/138/27 135/139/27
f 126/130/27 131/127/27 141/137/27 142/140/27
f 132/131/27 126/130/27 142/140/27 143/141/27
f 123/132/27 128/129/27 135/139/27 136/142/27
f 129/133/27 123/132/27 136/142/27 137/143/27
f 121/124/27 132/131/27 143/141/27 144/125/27
f 124/134/27 129/133/27 137/143/27 138/144/27
f 130/111/27 124/134/27 138/144/27 139/135/27
usemtl Material.001
f 136/145/63 135/146/63 147/147/63 148/148/63
f 152/149/27 151/150/27 150/151/27 149/152/27 148/148/27 147/147/27 146/153/27 145/154/27 156/155/27 155/156/27 154/157/27 153/158/27
f 137/159/64 136/145/64 148/148/64 149/152/64
f 144/160/65 143/161/65 155/156/65 156/155/65
f 138/162/66 137/159/66 149/152/66 150/151/66
f 139/163/67 138/162/67 150/151/67 151/150/67
f 133/164/68 144/160/68 156/155/68 145/154/68
f 140/165/69 139/163/69 151/150/69 152/149/69
f 141/166/70 140/165/70 152/149/70 153/158/70
f 134/167/71 133/164/71 145/154/71 146/153/71
f 135/146/72 134/167/72 146/153/72 147/147/72
f 142/168/73 141/166/73 153/158/73 154/157/73
f 143/161/74 142/168/74 154/157/74 155/156/74
