# Blender v2.83.5 OBJ File: 'area.blend'
# www.blender.org
mtllib area.mtl
o Circle_Circle.001
v 0.000000 0.000000 -3.999999
v -0.780361 0.000000 -3.923140
v -1.530734 0.000000 -3.695517
v -2.222281 0.000000 -3.325877
v -2.828427 0.000000 -2.828426
v -3.325878 0.000000 -2.222280
v -3.695518 0.000000 -1.530733
v -3.923141 0.000000 -0.780361
v -4.000000 0.000000 0.000001
v -3.923141 0.000000 0.780362
v -3.695518 0.000000 1.530734
v -3.325878 0.000000 2.222282
v -2.828427 0.000000 2.828428
v -2.222280 0.000000 3.325880
v -1.530733 0.000000 3.695519
v -0.780360 0.000000 3.923142
v 0.000002 0.000000 4.000000
v 0.780363 0.000000 3.923142
v 1.530736 0.000000 3.695518
v 2.222283 0.000000 3.325878
v 2.828429 0.000000 2.828426
v 3.325881 0.000000 2.222280
v 3.695520 0.000000 1.530732
v 3.923142 0.000000 0.780359
v 4.000000 0.000000 -0.000003
v 3.923141 0.000000 -0.780365
v 3.695517 0.000000 -1.530737
v 3.325876 0.000000 -2.222284
v 2.828424 0.000000 -2.828430
v 2.222277 0.000000 -3.325881
v 1.530729 0.000000 -3.695519
v 0.780356 0.000000 -3.923141
v -0.000000 0.000000 -0.000000
vt 0.999900 0.549236
vt 0.980689 0.645815
vt 0.500000 0.500000
vt 0.019311 0.645815
vt 0.000100 0.549235
vt 0.943006 0.736791
vt 0.181332 0.111702
vt 0.263208 0.056994
vt 0.000100 0.450764
vt 0.888298 0.818668
vt 0.354184 0.019311
vt 0.019311 0.354184
vt 0.818668 0.888298
vt 0.450764 0.000100
vt 0.056995 0.263208
vt 0.736791 0.943006
vt 0.549236 0.000100
vt 0.111703 0.181332
vt 0.645815 0.980689
vt 0.645815 0.019311
vt 0.549236 0.999900
vt 0.736791 0.056994
vt 0.450764 0.999900
vt 0.818667 0.111702
vt 0.354184 0.980689
vt 0.888298 0.181332
vt 0.263208 0.943006
vt 0.943006 0.263208
vt 0.181332 0.888297
vt 0.980689 0.354184
vt 0.111702 0.818667
vt 0.999900 0.450764
vt 0.056994 0.736791
vn 0.0000 1.0000 0.0000
usemtl None
s off
f 13/1/1 14/2/1 33/3/1
f 27/4/1 28/5/1 33/3/1
f 14/2/1 15/6/1 33/3/1
f 1/7/1 2/8/1 33/3/1
f 28/5/1 29/9/1 33/3/1
f 15/6/1 16/10/1 33/3/1
f 2/8/1 3/11/1 33/3/1
f 29/9/1 30/12/1 33/3/1
f 16/10/1 17/13/1 33/3/1
f 3/11/1 4/14/1 33/3/1
f 30/12/1 31/15/1 33/3/1
f 17/13/1 18/16/1 33/3/1
f 4/14/1 5/17/1 33/3/1
f 31/15/1 32/18/1 33/3/1
f 18/16/1 19/19/1 33/3/1
f 5/17/1 6/20/1 33/3/1
f 32/18/1 1/7/1 33/3/1
f 19/19/1 20/21/1 33/3/1
f 6/20/1 7/22/1 33/3/1
f 20/21/1 21/23/1 33/3/1
f 7/22/1 8/24/1 33/3/1
f 21/23/1 22/25/1 33/3/1
f 8/24/1 9/26/1 33/3/1
f 22/25/1 23/27/1 33/3/1
f 9/26/1 10/28/1 33/3/1
f 23/27/1 24/29/1 33/3/1
f 10/28/1 11/30/1 33/3/1
f 24/29/1 25/31/1 33/3/1
f 11/30/1 12/32/1 33/3/1
f 25/31/1 26/33/1 33/3/1
f 12/32/1 13/1/1 33/3/1
f 26/33/1 27/4/1 33/3/1
