# Blender v2.90.0 OBJ File: 'area.blend'
# www.blender.org
mtllib weapon_area.mtl
o Circle
v 0.000001 0.000000 -9.999997
v -1.950902 0.000000 -9.807850
v -3.826833 0.000000 -9.238792
v -5.555701 0.000000 -8.314693
v -7.071066 0.000000 -7.071065
v -8.314695 0.000000 -5.555699
v -9.238794 0.000000 -3.826832
v -9.807852 0.000000 -1.950901
v -9.999999 0.000000 0.000002
v -9.807852 0.000000 1.950905
v -9.238794 0.000000 3.826835
v -8.314695 0.000000 5.555705
v -7.071066 0.000000 7.071070
v -5.555701 0.000000 8.314699
v -3.826832 0.000000 9.238799
v -1.950900 0.000000 9.807856
v 0.000004 0.000000 10.000002
v 1.950908 0.000000 9.807855
v 3.826840 0.000000 9.238796
v 5.555708 0.000000 8.314696
v 7.071074 0.000000 7.071066
v 8.314701 0.000000 5.555699
v 9.238800 0.000000 3.826830
v 9.807856 0.000000 1.950897
v 10.000001 0.000000 -0.000007
v 9.807852 0.000000 -1.950911
v 9.238792 0.000000 -3.826842
v 8.314691 0.000000 -5.555710
v 7.071060 0.000000 -7.071074
v 5.555692 0.000000 -8.314701
v 3.826822 0.000000 -9.238798
v 1.950889 0.000000 -9.807853
vt 0.263208 0.943006
vt 0.181332 0.888298
vt 0.111702 0.818667
vt 0.056994 0.736791
vt 0.019311 0.645816
vt 0.000100 0.549236
vt 0.000100 0.450765
vt 0.019311 0.354185
vt 0.056994 0.263209
vt 0.111702 0.181332
vt 0.181332 0.111703
vt 0.263208 0.056994
vt 0.354184 0.019311
vt 0.450764 0.000100
vt 0.549236 0.000100
vt 0.645815 0.019311
vt 0.736790 0.056994
vt 0.818668 0.111702
vt 0.888297 0.181332
vt 0.943006 0.263208
vt 0.980689 0.354185
vt 0.999900 0.450764
vt 0.999900 0.549236
vt 0.980689 0.645816
vt 0.943006 0.736791
vt 0.888298 0.818668
vt 0.818667 0.888298
vt 0.736791 0.943006
vt 0.645814 0.980690
vt 0.549236 0.999900
vt 0.450764 0.999900
vt 0.354185 0.980689
vn 0.0000 1.0000 0.0000
usemtl None
s off
f 2/1/1 3/2/1 4/3/1 5/4/1 6/5/1 7/6/1 8/7/1 9/8/1 10/9/1 11/10/1 12/11/1 13/12/1 14/13/1 15/14/1 16/15/1 17/16/1 18/17/1 19/18/1 20/19/1 21/20/1 22/21/1 23/22/1 24/23/1 25/24/1 26/25/1 27/26/1 28/27/1 29/28/1 30/29/1 31/30/1 32/31/1 1/32/1
